<?xml version="1.0" standalone="no"?>
<!DOCTYPE svg PUBLIC "-//W3C//DTD SVG 20010904//EN"
 "http://www.w3.org/TR/2001/REC-SVG-20010904/DTD/svg10.dtd">
<svg version="1.0" xmlns="http://www.w3.org/2000/svg"
 width="260.000000pt" height="260.000000pt" viewBox="0 0 260.000000 260.000000"
 preserveAspectRatio="xMidYMid meet">
<metadata>
Created by potrace 1.11, written by Peter Selinger 2001-2013
</metadata>
<g transform="translate(0.000000,260.000000) scale(0.100000,-0.100000)"
fill="#000000" stroke="none">
<path d="M1733 2288 c-10 -12 -26 -46 -129 -265 -19 -40 -49 -106 -68 -145
-19 -40 -57 -122 -86 -183 -29 -60 -64 -137 -80 -170 -15 -33 -82 -175 -148
-315 -115 -246 -152 -324 -222 -475 -18 -38 -57 -122 -87 -185 -111 -232 -112
-234 -69 -242 24 -4 20 -12 248 477 38 83 85 182 103 220 115 246 187 400 218
465 19 41 72 154 117 250 45 96 97 207 115 245 18 39 56 119 84 179 29 61 51
119 49 130 -4 24 -30 32 -45 14z"/>
<path d="M439 1798 c-101 -112 -188 -208 -194 -214 -5 -6 -44 -48 -85 -94 -41
-46 -94 -104 -117 -129 -24 -25 -43 -52 -43 -59 0 -7 19 -34 43 -60 24 -26 61
-67 83 -91 21 -24 50 -56 64 -71 14 -15 59 -64 100 -110 41 -45 80 -88 85 -94
6 -6 62 -67 125 -136 113 -124 154 -152 162 -113 5 22 -20 52 -282 336 -30 32
-62 68 -73 80 -10 12 -53 60 -95 106 -108 117 -134 149 -132 158 1 4 27 35 59
69 31 33 74 81 96 105 32 35 123 136 240 265 163 180 195 216 195 220 0 6 -32
34 -40 34 -4 0 -90 -91 -191 -202z"/>
<path d="M1941 1978 c-7 -18 0 -31 33 -67 23 -24 46 -49 51 -55 163 -176 495
-547 495 -553 0 -9 -17 -30 -130 -153 -106 -115 -108 -117 -205 -225 -44 -48
-93 -102 -109 -119 -15 -17 -45 -49 -65 -71 -60 -66 -80 -95 -74 -111 8 -21
43 -17 64 7 10 12 58 64 106 117 49 52 96 104 106 116 22 25 170 188 207 227
14 15 41 44 60 66 19 21 54 60 78 86 23 25 42 52 42 59 -1 12 -16 30 -129 154
-40 43 -152 167 -216 238 -11 13 -60 67 -110 122 -49 54 -107 118 -129 141
-43 48 -63 53 -75 21z"/>
</g>
</svg>
